<?xml version="1.0" standalone="no"?>
<!DOCTYPE svg PUBLIC "-//W3C//DTD SVG 1.1//EN" "http://www.w3.org/Graphics/SVG/1.1/DTD/svg11.dtd">
<svg version="1.1" xmlns="http://www.w3.org/2000/svg" viewBox="0 0 376.1002746297579 227.20545193899216" width="376.1002746297579" height="227.20545193899216"><!-- svg-source:excalidraw --><metadata></metadata><defs><style class="style-fonts">
      </style></defs><g stroke-linecap="round"><g transform="translate(12.046793981106703 213.84880214611974) rotate(0 174.41116412170553 -0.09753360161090541)"><path d="M-0.79 -1.11 C57.61 -1.02, 291.45 0.46, 349.61 0.83 M0.99 0.92 C59.35 0.65, 290.65 -0.59, 348.9 -0.86" stroke="#1e1e1e" stroke-width="4" fill="none"></path></g></g><mask></mask><g stroke-linecap="round"><g transform="translate(120.3217285549207 213.24520855936942) rotate(0 121.07158664438117 -65.64820597248143)" fill-rule="evenodd"><path d="M4.16 3.03 C8.25 -0.04, 19.58 -9.1, 26.48 -18.58 C33.38 -28.06, 37.49 -39.45, 45.56 -53.86 C53.64 -68.27, 65.47 -91.53, 74.93 -105.04 C84.39 -118.56, 92.25 -137.48, 102.33 -134.96 C112.41 -132.43, 125.41 -106.65, 135.41 -89.88 C145.42 -73.11, 152.21 -47.09, 162.38 -34.32 C172.54 -21.54, 186.18 -18.48, 196.41 -13.21 C206.64 -7.93, 218.73 -4.22, 223.76 -2.66 C228.78 -1.1, 264.59 -4.16, 226.58 -3.85 C188.57 -3.55, 33.33 -1.51, -4.3 -0.81" stroke="none" stroke-width="0" fill="#d0bfff" fill-rule="evenodd"></path><path d="M0.03 0.07 C5.02 -2.93, 20.38 -7.76, 28.82 -17.17 C37.27 -26.58, 42.66 -42.13, 50.7 -56.4 C58.75 -70.67, 68.49 -90.75, 77.1 -102.82 C85.7 -114.88, 92.04 -131.17, 102.34 -128.78 C112.64 -126.4, 128.24 -103.37, 138.91 -88.51 C149.59 -73.66, 156.67 -52.17, 166.41 -39.65 C176.15 -27.14, 187.62 -19.38, 197.35 -13.41 C207.09 -7.44, 219.51 -5.78, 224.84 -3.83 C230.16 -1.87, 266.32 -2.49, 229.3 -1.68 C192.29 -0.87, 41.01 1.04, 2.75 1.06 M-3.4 -2.35 C1.55 -6.29, 19.04 -12.8, 27.96 -21.5 C36.87 -30.21, 43.01 -41.44, 50.09 -54.58 C57.16 -67.72, 62.3 -86.94, 70.4 -100.35 C78.51 -113.76, 88.04 -137.87, 98.71 -135.02 C109.38 -132.17, 122.8 -99.89, 134.44 -83.25 C146.07 -66.61, 158.32 -46.8, 168.52 -35.19 C178.72 -23.57, 186.92 -18.25, 195.64 -13.57 C204.36 -8.9, 216.13 -8.79, 220.84 -7.14 C225.55 -5.5, 261.32 -5.56, 223.91 -3.71 C186.5 -1.86, 34.3 3.91, -3.64 3.96" stroke="#1e1e1e" stroke-width="4" fill="none"></path></g></g><mask></mask><g stroke-linecap="round"><g transform="translate(12.284293828159548 213.37164223295588) rotate(0 133.69438840739952 -101.44293727314184)" fill-rule="evenodd"><path d="M1.97 -0.14 C7.59 -3.75, 24.65 -11.35, 33.29 -24.11 C41.92 -36.87, 46.09 -56.78, 53.77 -76.72 C61.46 -96.66, 68.21 -122.68, 79.38 -143.73 C90.55 -164.78, 107.14 -204.27, 120.78 -203.02 C134.42 -201.77, 150.34 -157.61, 161.22 -136.26 C172.1 -114.91, 177.57 -94.74, 186.06 -74.91 C194.55 -55.09, 203.27 -28.5, 212.18 -17.32 C221.08 -6.13, 232.33 -10.17, 239.49 -7.79 C246.65 -5.41, 254.3 -3.39, 255.13 -3.03 C255.96 -2.68, 287.73 -6.01, 244.5 -5.64 C201.26 -5.27, 36.31 -1.81, -4.3 -0.81" stroke="none" stroke-width="0" fill="#9775fa" fill-rule="evenodd"></path><path d="M-2.28 -1.15 C2.54 -5.38, 18.67 -13.7, 27.99 -26.26 C37.3 -38.81, 44.14 -57.07, 53.62 -76.47 C63.1 -95.87, 73.35 -121.57, 84.85 -142.65 C96.35 -163.72, 109.43 -204.52, 122.63 -202.92 C135.82 -201.32, 153.18 -155.36, 164.03 -133.06 C174.89 -110.76, 178.98 -87.55, 187.75 -69.13 C196.52 -50.7, 207.89 -32.2, 216.64 -22.51 C225.38 -12.83, 233.39 -14.28, 240.22 -11.02 C247.05 -7.75, 256.9 -4.46, 257.61 -2.92 C258.32 -1.38, 286.98 -1.98, 244.49 -1.79 C201.99 -1.6, 42.93 -2.25, 2.64 -1.78 M1.67 -4.24 C6.1 -9.27, 16.77 -19.28, 25.13 -30.79 C33.49 -42.3, 42.99 -53.78, 51.83 -73.32 C60.66 -92.86, 66.74 -126.35, 78.16 -148.01 C89.59 -169.67, 106.69 -205.35, 120.35 -203.29 C134 -201.23, 148.63 -157.73, 160.09 -135.65 C171.55 -113.57, 179.95 -89.39, 189.11 -70.83 C198.27 -52.26, 207.09 -34.94, 215.05 -24.24 C223.01 -13.54, 229.35 -10.12, 236.87 -6.64 C244.38 -3.16, 258.74 -4.53, 260.13 -3.34 C261.52 -2.16, 288.43 0.55, 245.2 0.48 C201.96 0.42, 42.25 -3.61, 0.74 -3.74" stroke="#1e1e1e" stroke-width="4" fill="none"></path></g></g><mask></mask></svg>